<svg id="Layer_1" data-name="Layer 1" xmlns="http://www.w3.org/2000/svg" viewBox="0 0 189.83 144"><defs><style>.cls-1{fill:#ef4438;}</style></defs><title>ITW-Logos</title><path class="cls-1" d="M116.64,89.8h-0.21l-13.67,40.07H96.18l-15.37-49h7l11.87,41h0.21l13.67-41h6l14.11,39.86c0.41-.32.83-0.64,1.23-1l11-38.88h6.36l-9,30.53A62.65,62.65,0,1,0,39.68,101.16V80.88H45v28.55a63,63,0,0,0,14,13.45,17.22,17.22,0,0,1-.54-4.35V86.62H47.83V80.89h10.6V66.8h6.36v14.1h14v5.72h-14v31.91a6.88,6.88,0,0,0,1.8,5.09,6.73,6.73,0,0,0,5,1.8,14.68,14.68,0,0,0,3.66-.48,23.34,23.34,0,0,0,3.55-1.22l0.53,5.72a37.83,37.83,0,0,1-4.13,1.17l-0.8.16A62.61,62.61,0,0,0,129.14,124ZM45.18,67.5a4.06,4.06,0,1,1,1.15-2.84A3.85,3.85,0,0,1,45.18,67.5Z"/></svg>