<svg id="Layer_1" data-name="Layer 1" xmlns="http://www.w3.org/2000/svg" viewBox="0 0 1019 144"><defs><style>.cls-1{fill:#ef4438;}</style></defs><title>ITW-Logos</title><path class="cls-1" d="M962.38,90.21h-0.21L948.5,130.28h-6.57l-15.37-49h7l11.87,41h0.21l13.67-41h6l14.11,39.86c0.41-.32.83-0.64,1.23-1l11-38.88H998l-9,30.53a62.65,62.65,0,1,0-103.59-10.26V81.3h5.32v28.55a63,63,0,0,0,14,13.45,17.22,17.22,0,0,1-.54-4.35V87h-10.6V81.31h10.6V67.21h6.36v14.1h14V87h-14v31.91a6.88,6.88,0,0,0,1.8,5.09,6.73,6.73,0,0,0,5,1.8,14.68,14.68,0,0,0,3.66-.48,23.34,23.34,0,0,0,3.55-1.22l0.53,5.72a37.83,37.83,0,0,1-4.13,1.17l-0.8.16a62.61,62.61,0,0,0,54.76-6.72Zm-71.46-22.3a4.06,4.06,0,1,1,1.15-2.84A3.85,3.85,0,0,1,890.92,67.92Z"/><path d="M45.23,107.44V32.58c0.46,0.48.82,0.9,1.21,1.27,4.46,4.26,8.89,8.55,13.4,12.76,9.25,8.63,18.55,17.2,27.81,25.82,2.09,1.95,4.16,3.92,6.14,6,1.08,1.12,2,2.43,2.91,3.63V35.8h11.86v74.94c-0.61-.65-1.12-1.24-1.68-1.78Q98,100.33,89,91.71c-6.58-6.3-13.21-12.55-19.79-18.86q-4.39-4.21-8.66-8.54c-1.23-1.25-2.31-2.65-3.46-4v47.11H45.23Z"/><path d="M28.65,107.46h-12V35.81h12v71.65Z"/><path d="M395.81,79.61l17.71,28h-4.29c-3.09,0-6.18,0-9.27,0-3.06-3.93-11.42-16.24-16.37-24a1.67,1.67,0,0,0-1.63-.89c-3.29,0-6.57,0-10,0V107.5H359.93v-72c0.24,0,.5-0.07.76-0.07,6.86,0,13.72-.06,20.57,0a29.07,29.07,0,0,1,15.58,4.25,20.16,20.16,0,0,1,9.36,14.79A27.38,27.38,0,0,1,403.77,71a19.73,19.73,0,0,1-7.1,7.94l-0.67.45A1.38,1.38,0,0,0,395.81,79.61ZM372,71.34c1.41,0,2.7,0,4,0a67.72,67.72,0,0,0,8.32-.24c9.67-1.39,12.39-11.79,8.41-18.6-2.29-3.93-6-5.55-10.39-5.62-3.19,0-6.38,0-9.57,0a7.35,7.35,0,0,0-.75.07v24.4Z"/><path d="M206.54,107.55H194.41v-72H206.5v30h34.45v-30h12.21v72H241V77.2H206.54v30.35Z"/><path d="M282,46.41V65.79h31.67V77.11H282V96.32H319v11.19h-49.1v-72h47.75V46.41H282Z"/><path d="M181.84,35.49V47H164.18V107.5H151.93V47.06H134.58V35.49h47.26Z"/><path d="M331.12,35.49h12.05v72H331.12v-72Z"/><path d="M515.56,110.51L498.78,69l-18.66,41.82L451.55,36.22c0.38,0,.61-0.07.85-0.07,4,0,8.05,0,12.08,0a0.87,0.87,0,0,1,1,.65c3.85,10.8,7.8,21.58,11.55,32.41,1.43,4.13,2.42,8.42,3.61,12.63,0,0.16.11,0.32,0.18,0.49,3.11-8.58,7.29-16.64,11.07-24.87a5.41,5.41,0,0,0,.29-4.43c-1.8-5.19-3.44-10.44-5.14-15.66-0.11-.35-0.2-0.7-0.33-1.14,0.31,0,.55-0.07.79-0.07,3.34,0,6.68,0,10,0a0.94,0.94,0,0,1,1,.73q8.12,21.35,16.25,42.71a22.77,22.77,0,0,1,.68,2.83c0.41-1.81.75-3.54,1.19-5.24a187.78,187.78,0,0,1,6.73-19.89q3.89-10.22,7.87-20.4a1.13,1.13,0,0,1,.67-0.68c4,0,8,0,12.21,0Z"/><path d="M582.15,108.24a36.62,36.62,0,0,1-36.44-36.45C545.67,52,562.2,34.87,582.55,35,602.31,35,619,51.89,619,71.8A36.64,36.64,0,0,1,582.15,108.24Zm-24.3-38.6c0,6.34.93,10.38,3,14.14a24.64,24.64,0,0,0,25.46,12.75,23.77,23.77,0,0,0,16.83-11.2,25.5,25.5,0,0,0-3.52-31.48,23.39,23.39,0,0,0-13.43-6.94,23,23,0,0,0-15.67,2.81C562.16,54.65,558.15,62.15,557.85,69.64Z"/><path d="M750,35.75h1c5.77,0,11.54,0,17.31,0a47.35,47.35,0,0,1,16.4,2.47C795,42,802.5,48.8,805.94,59.5a39.26,39.26,0,0,1,.62,23.74A32.25,32.25,0,0,1,790.38,103,38.29,38.29,0,0,1,772,107.46H750V35.75Zm12.1,11.63V96c3.21,0,6.35.05,9.48,0a27.67,27.67,0,0,0,12.81-3.2,21,21,0,0,0,10.54-13.18,29.89,29.89,0,0,0,.84-11.28,22.47,22.47,0,0,0-6.36-13.87,23.46,23.46,0,0,0-15.67-6.93c-3.69-.26-7.42-0.13-11.13-0.17C762.44,47.34,762.27,47.36,762.09,47.38Z"/><path d="M666.54,79.65l17.58,27.76c-0.34,0-.61,0-0.87,0-4.23,0-8.45,0-12.68,0-0.48-.47-11.3-16.23-16.3-24a1.32,1.32,0,0,0-1.29-.71c-3.37,0-6.73,0-10.2,0v24.63h-12V35.75h0.95c6.28,0,12.56,0,18.85,0a34,34,0,0,1,13.53,2.46,20.18,20.18,0,0,1,12.6,15.7,26.28,26.28,0,0,1-3.22,18.79,19.25,19.25,0,0,1-5.9,6.1l-0.93.62A1.22,1.22,0,0,0,666.54,79.65Zm-23.73-8.19c3.35,0,6.6,0,9.86,0A13.43,13.43,0,0,0,659,70a12.05,12.05,0,0,0,5.91-13.33c-1.14-5.5-4.81-9-10.36-9.43-3.78-.3-7.59-0.11-11.39-0.14a1.66,1.66,0,0,0-.36.09v24.3Z"/><path d="M818.33,91.81c1.82,0.78,3.51,1.6,5.26,2.25a33.29,33.29,0,0,0,11.84,2.37c4.78,0,9.39-.87,13.47-3.69a7.31,7.31,0,0,0,.24-11.9,41.47,41.47,0,0,0-9.25-4.91c-3.95-1.62-7.92-3.19-11.8-5a23.12,23.12,0,0,1-8.23-6.28,12.9,12.9,0,0,1-3-7.66c-0.57-8.76,4.26-15.74,11.85-19.23a27.66,27.66,0,0,1,10.94-2.39,54.17,54.17,0,0,1,20.29,3.76c0.53,0.19,1.06.41,1.63,0.63a1.54,1.54,0,0,1-.06.33c-1.29,2.95-2.6,5.89-3.88,8.84a0.69,0.69,0,0,1-1,.45c-3.52-.94-7-2-10.58-2.65a21,21,0,0,0-11.78.9,9.32,9.32,0,0,0-4.46,3.46,6.35,6.35,0,0,0,1.42,8.64,34.28,34.28,0,0,0,8.88,4.52c3.42,1.32,6.9,2.52,10.26,4a25.53,25.53,0,0,1,10.28,7.88A17.39,17.39,0,0,1,864,86.71,19.53,19.53,0,0,1,860.47,99a19.21,19.21,0,0,1-7.6,6.09,37.41,37.41,0,0,1-14.77,3.15,46.16,46.16,0,0,1-17.49-2.47c-2.32-.83-4.51-2-6.75-3.07a5.66,5.66,0,0,1-.67-0.44Z"/><path d="M693.38,35.8H705.3V96h34.78v11.37H693.38V35.8Z"/></svg>